<svg width="64" height="64" viewBox="0 0 64 64" fill="none" xmlns="http://www.w3.org/2000/svg">
  <rect width="64" height="64" rx="14" fill="#101828"/>
  <circle cx="45" cy="17" r="7" fill="#F4F0E8"/>
  <path d="M42 17C42 13.7 43.9 10.9 46.6 9.6C41.9 8.6 37 12.2 37 17C37 21.8 41.9 25.4 46.6 24.4C43.9 23.1 42 20.3 42 17Z" fill="#101828"/>
  <path d="M8 47L18 33L28 42L38 26L56 47H8Z" fill="#D4A042"/>
  <path d="M8 47H56V54H8V47Z" fill="#F4D8B8"/>
  <path d="M17 47L24 38L31 47H17Z" fill="#30261F" opacity="0.42"/>
  <path d="M36 47L42 36L51 47H36Z" fill="#30261F" opacity="0.35"/>
  <circle cx="15" cy="16" r="1.5" fill="#F4F0E8"/>
  <circle cx="25" cy="10" r="1" fill="#F4F0E8"/>
  <circle cx="53" cy="33" r="1" fill="#F4F0E8"/>
</svg>
